PathFileType	4	(X/Y/Z)	/Users/niels/Desktop/University/Third Semester/Perception and Action/Exam/Gymnastics Motion Tracking/Code for Gym Tracking/Analyzed Data/Webcam_Backflip/id19_1_trajectory_Sports2D/id19_1_trajectory_Sports2D_px_person00.trc
DataRate	CameraRate	NumFrames	NumMarkers	Units	OrigDataRate	OrigDataStartFrame	OrigNumFrames
29.702970297029704	29.702970297029704	9	22	m	29.702970297029704	63	101
Frame#	Time	Hip			RHip			RKnee			RAnkle			RBigToe			RSmallToe			RHeel			LHip			LKnee			LAnkle			LBigToe			LSmallToe			LHeel			Neck			Head			Nose			RShoulder			RElbow			RWrist			LShoulder			LElbow			LWrist		
		X1	Y1	Z1	X2	Y2	Z2	X3	Y3	Z3	X4	Y4	Z4	X5	Y5	Z5	X6	Y6	Z6	X7	Y7	Z7	X8	Y8	Z8	X9	Y9	Z9	X10	Y10	Z10	X11	Y11	Z11	X12	Y12	Z12	X13	Y13	Z13	X14	Y14	Z14	X15	Y15	Z15	X16	Y16	Z16	X17	Y17	Z17	X18	Y18	Z18	X19	Y19	Z19	X20	Y20	Z20	X21	Y21	Z21	X22	Y22	Z22
63	2.121	0.956662051629098	-0.5880100291332182	0.0	0.9562947464328404	-0.5878213948973009	0.0	0.9505637102701373	-0.693235481934608	0.0	0.9360001403394853	-0.7935447510749379	0.0	0.9679372267465273	-0.8219976061585756	0.0	0.9608034821893503	-0.8251320976081287	0.0	0.9256839562690262	-0.8047488091732692	0.0	0.9572005269180327	-0.5887451090834294	0.0	0.9503262996737426	-0.6941117340174217	0.0	0.9363143760178151	-0.7906805342949186	0.0	0.9682312835840463	-0.8178312299141581	0.0	0.9610616319021256	-0.8137433178871198	0.0	0.9221676239903703	-0.7996229474518894	0.0	1.0661122985045381	-0.5282441514945309	0.0	1.1366303265910045	-0.5127980691068738	0.0	1.1090198560294267	-0.538498358114415	0.0	1.0581586791890396	-0.5312999570199453	0.0	1.0648292294761106	-0.5864355595087913	0.0	1.0937928730842819	-0.6243415921030996	0.0	1.0568910071361135	-0.52539221967268	0.0	1.0711354068601644	-0.5826456545918839	0.0	1.0989388168282017	-0.618094821811476	0.0
64	2.1546666666666665	0.9593867913168419	-0.6326514040012086	0.0	0.9609060320305501	-0.6325428171497641	0.0	0.9624656633196935	-0.7373789694002991	0.0	0.9530998174026553	-0.8357048172486419	0.0	0.9823930304442199	-0.8559295112251457	0.0	0.9767026343489817	-0.8607686922473393	0.0	0.9446038612717571	-0.8451814112034495	0.0	0.9583106165494963	-0.632773877247825	0.0	0.9608887521065089	-0.7377500227485848	0.0	0.952440385983044	-0.8330312961063832	0.0	0.9829366701243971	-0.8525311098837334	0.0	0.9737497426196415	-0.849912721873142	0.0	0.9409706476639047	-0.8408647301805944	0.0	1.0532380547245275	-0.5447591258110679	0.0	1.119243238592522	-0.5170544242873067	0.0	1.0960279293459034	-0.546316268133629	0.0	1.04755447281351	-0.5486924500651438	0.0	1.0775051416652792	-0.5930682864795336	0.0	1.1199379722811507	-0.6153640355640955	0.0	1.0430254284794451	-0.5434188780457013	0.0	1.0796213666872663	-0.5894101597167504	0.0	1.1213930280416704	-0.6103403532720711	0.0
65	2.188333333333333	0.9642706509242631	-0.6760681225799049	0.0	0.9670219410641617	-0.6761166514211363	0.0	0.9730051324560459	-0.7793004624979708	0.0	0.965739409149299	-0.8735257805383503	0.0	0.9921380075972325	-0.8850357669999903	0.0	0.98670136472707	-0.8903104303549798	0.0	0.9584148272497838	-0.8782703921628054	0.0	0.9621012603090069	-0.6756476218109688	0.0	0.9705275478961716	-0.7790845166725555	0.0	0.9648091019909202	-0.8708967591356617	0.0	0.9930382461426217	-0.8829195319774985	0.0	0.982192341018284	-0.8807742970073696	0.0	0.9555871009222741	-0.8751032780257727	0.0	1.0397204307589059	-0.5658737870735149	0.0	1.098964592142601	-0.5279259470212648	0.0	1.0811468978731926	-0.5591792339089756	0.0	1.0361172659905185	-0.5704918485429841	0.0	1.0839015393896623	-0.5972206075742411	0.0	1.1324799370533962	-0.5996588292366968	0.0	1.0293832096809201	-0.5662441123166234	0.0	1.0819928973986823	-0.5940758482063637	0.0	1.1307566199998607	-0.5970574251610103	0.0
66	2.222	0.9703246075965452	-0.7153973569025155	0.0	0.9731506513314316	-0.7155770694780865	0.0	0.9813326586930167	-0.8166082974700632	0.0	0.9744441248785397	-0.9058693857334728	0.0	0.9986949752899884	-0.9088300385585772	0.0	0.9917835448206241	-0.9122889651694115	0.0	0.9675079117592196	-0.9031047813483253	0.0	0.968083714331378	-0.7145464372641603	0.0	0.9788672737686729	-0.8156181447596477	0.0	0.9740664966117064	-0.9032476981698487	0.0	1.0002515310535989	-0.9087437316762911	0.0	0.9878116039108499	-0.9054500852159247	0.0	0.9663809148755631	-0.9018745895603427	0.0	1.0275353351576908	-0.5892250438546646	0.0	1.0783175223037154	-0.5433675804265155	0.0	1.0663987286291294	-0.5753409104187297	0.0	1.0251331063294524	-0.5944087147768968	0.0	1.0832216344231262	-0.600298100435472	0.0	1.13048959975022	-0.5827192623655847	0.0	1.0184687521796454	-0.5914216239655142	0.0	1.0792147241664622	-0.5982285880192317	0.0	1.127356949337624	-0.5833159994869506	0.0
67	2.2556666666666665	0.9764901888328529	-0.7478692188470728	0.0	0.9781503129347361	-0.7479602117779053	0.0	0.9871147453014494	-0.8470494743794547	0.0	0.9801035792576117	-0.9320171273437948	0.0	1.0032891931464414	-0.9279125493555622	0.0	0.9932952946599549	-0.926445525699091	0.0	0.9728741403538124	-0.9203504525605793	0.0	0.9755472396938798	-0.746544514900608	0.0	0.985773391916801	-0.8450747443773695	0.0	0.9809412392950031	-0.9294273910746875	0.0	1.0058739039410387	-0.930564804967958	0.0	0.9916462864482085	-0.9241044651403517	0.0	0.9738786507804699	-0.9220206917679217	0.0	1.0181297461723016	-0.611442452407772	0.0	1.0596139124293351	-0.560114234035233	0.0	1.0534013813002168	-0.5919966969966581	0.0	1.0154123333665643	-0.6172211234093383	0.0	1.0765085558523926	-0.6029641004864906	0.0	1.116946087467154	-0.5686338557140547	0.0	1.0119225078708156	-0.6154355396588833	0.0	1.0735749393684766	-0.6026140037107854	0.0	1.1148643644734815	-0.572664067858055	0.0
68	2.289333333333333	0.9818880912778216	-0.7709731800161888	0.0	0.9815206488734894	-0.7705869169985684	0.0	0.9906458010436471	-0.8685172232273147	0.0	0.9831883994147846	-0.9510200283247915	0.0	1.0063657589024142	-0.9432921402835565	0.0	0.9925604493166656	-0.9339258189976873	0.0	0.975201311997006	-0.9316062320093916	0.0	0.9835613646558122	-0.7690037009975141	0.0	0.991229323173603	-0.865546786617218	0.0	0.9854625204850599	-0.9485081585221022	0.0	1.0102627510831899	-0.9487329816589719	0.0	0.994138385669353	-0.9375023036119322	0.0	0.978006156916426	-0.936678165782452	0.0	1.012090591823662	-0.6288652377768508	0.0	1.0446354958363586	-0.5741886364445703	0.0	1.043253577764095	-0.6056219748706724	0.0	1.0074083657354131	-0.6353909829251174	0.0	1.0661985406713386	-0.60463185931503	0.0	1.097381517310935	-0.5586871631640015	0.0	1.0100660689683214	-0.6344827622702899	0.0	1.0678119650829252	-0.6064982986167404	0.0	1.0987494173839951	-0.565854140906061	0.0
69	2.323	0.9859847183022201	-0.7827041040483421	0.0	0.9833535410007351	-0.7814508953598824	0.0	0.9926693216479435	-0.8790243570958893	0.0	0.983636268757503	-0.9609288980090127	0.0	1.0076657165331118	-0.9546660745374863	0.0	0.9906209126936111	-0.9365573620588538	0.0	0.9746212244490049	-0.9378772278230185	0.0	0.9910050437131718	-0.7799602892261138	0.0	0.9952050549492165	-0.8753879735074884	0.0	0.9870485098308324	-0.9584807054497616	0.0	1.0128855550349725	-0.9616085312172348	0.0	0.9954023515243108	-0.9454886356196478	0.0	0.9783021007907783	-0.9455752102906455	0.0	1.00916227227955	-0.6384099970944106	0.0	1.0342169161520296	-0.5817696638967625	0.0	1.036278057935667	-0.6127568837960998	0.0	1.001357522743138	-0.6457628209906879	0.0	1.055087073345773	-0.6037073773761525	0.0	1.0777141703742157	-0.5516062309670701	0.0	1.0119617812985646	-0.6453410313439425	0.0	1.0640497849682546	-0.6079300695379878	0.0	1.0841560173933442	-0.5611894103191511	0.0
70	2.3566666666666665	0.9886961890506754	-0.7822257574715092	0.0	0.9840717194511942	-0.7798947403045005	0.0	0.9939206432648051	-0.8775210845706237	0.0	0.9815082912146375	-0.9598998301758185	0.0	1.0067630335396536	-0.9596947990694492	0.0	0.9881652097997892	-0.9357938549723152	0.0	0.9713809829204219	-0.9389390105591242	0.0	0.9969603613571074	-0.778729719846139	0.0	0.997767028543414	-0.8737666746956352	0.0	0.985482631530832	-0.9573848420264932	0.0	1.0129325030754193	-0.9659304879358488	0.0	0.9955742629883906	-0.9466636641089946	0.0	0.9749041241138741	-0.9470034789077587	0.0	1.008555972038503	-0.6382655831227313	0.0	1.0281075583785377	-0.5801406404236021	0.0	1.0320448064473333	-0.6109695603650959	0.0	0.9972857300949871	-0.6462194487076957	0.0	1.0453856732468605	-0.5984614002676009	0.0	1.0624745318671864	-0.5448439485455867	0.0	1.0160511108839354	-0.6460795521956317	0.0	1.0632423351007794	-0.6047941267788303	0.0	1.0744477399213226	-0.5559106070321697	0.0
71	2.390333333333333	0.9903655314935127	-0.7703104395364224	0.0	0.9842161097376982	-0.766963389449255	0.0	0.9947940671727065	-0.864826136584457	0.0	0.9775995130983499	-0.9483727122173965	0.0	1.0038708314166638	-0.9559501056927053	0.0	0.9855924524712074	-0.9320567379804513	0.0	0.9665017533629935	-0.9341719910410069	0.0	1.0011994431094788	-0.7662579294193205	0.0	0.9992631620911134	-0.8614893153992886	0.0	0.9816396891037206	-0.9456562231009776	0.0	1.0103248260640532	-0.9597493786914075	0.0	0.9950403847408573	-0.94033512856381	0.0	0.9691467712286979	-0.9400376379659303	0.0	1.0093115327177722	-0.628149075555224	0.0	1.025294457007919	-0.5683023648350803	0.0	1.0298415287250764	-0.5995031108136061	0.0	0.9949385989886729	-0.6361507139930591	0.0	1.0381679767659757	-0.5879233195757615	0.0	1.053950484926401	-0.5359985149378107	0.0	1.0209557032613172	-0.6364400354229833	0.0	1.0652915160453011	-0.5958312564265841	0.0	1.0708283059146892	-0.5476985489740046	0.0
